<?xml version="1.0" encoding="UTF-8" standalone="no"?>
<svg
   xmlns:dc="http://purl.org/dc/elements/1.1/"
   xmlns:cc="http://creativecommons.org/ns#"
   xmlns:rdf="http://www.w3.org/1999/02/22-rdf-syntax-ns#"
   xmlns:svg="http://www.w3.org/2000/svg"
   xmlns="http://www.w3.org/2000/svg"
   xmlns:sodipodi="http://sodipodi.sourceforge.net/DTD/sodipodi-0.dtd"
   xmlns:inkscape="http://www.inkscape.org/namespaces/inkscape"
   width="1280"
   height="820"
   viewBox="0 0 338.66665 216.95834"
   version="1.1"
   id="svg8"
   inkscape:version="1.0.1 (c497b03c, 2020-09-10)"
   sodipodi:docname="fondoCamisetas.svg">
  <defs
     id="defs2" />
  <sodipodi:namedview
     id="base"
     pagecolor="#ffffff"
     bordercolor="#666666"
     borderopacity="1.0"
     inkscape:pageopacity="0.0"
     inkscape:pageshadow="2"
     inkscape:zoom="0.8699832"
     inkscape:cx="641.39169"
     inkscape:cy="428.4381"
     inkscape:document-units="px"
     inkscape:current-layer="layer4"
     inkscape:document-rotation="0"
     showgrid="true"
     units="px"
     width="1280px"
     objecttolerance="20"
     showguides="true"
     inkscape:window-width="1690"
     inkscape:window-height="970"
     inkscape:window-x="1371"
     inkscape:window-y="23"
     inkscape:window-maximized="0">
    <inkscape:grid
       type="xygrid"
       id="grid833"
       spacingx="0.52916666"
       spacingy="0.52916666"
       empspacing="10" />
  </sodipodi:namedview>
  <metadata
     id="metadata5">
    <rdf:RDF>
      <cc:Work
         rdf:about="">
        <dc:format>image/svg+xml</dc:format>
        <dc:type
           rdf:resource="http://purl.org/dc/dcmitype/StillImage" />
        <dc:title></dc:title>
      </cc:Work>
    </rdf:RDF>
  </metadata>
  <g
     inkscape:label="Fondo"
     inkscape:groupmode="layer"
     id="layer1"
     sodipodi:insensitive="true">
    <rect
       style="fill:#f0755b;fill-opacity:1;stroke:none;stroke-width:1.065;stroke-linejoin:round"
       id="rect835"
       width="338.66666"
       height="216.95833"
       x="0"
       y="0" />
  </g>
  <g
     inkscape:groupmode="layer"
     id="layer4"
     inkscape:label="Lines"
     sodipodi:insensitive="true">
    <path
       id="path891"
       style="fill:#ff2a2a;fill-opacity:1;stroke:#ffffff;stroke-width:1.32292;stroke-linecap:round;stroke-linejoin:miter;stroke-miterlimit:4;stroke-dasharray:none;stroke-opacity:1"
       d="m 11.641668,216.95833 c 23.45773,-48.58518 71.72374,-63.50922 114.456452,-63.5 54.71029,0.0118 128.64109,27.14978 132.29166,-10.58333 2.53683,-26.22129 -48.80566,-83.88772 31.75,-68.79167 C 360.48284,87.26555 328.99715,37.93052 338.66666,0 M 11.641668,216.95833 c 23.45773,-48.58518 62.04229,-68.80089 104.775002,-68.79167 54.71029,0.0118 128.64109,27.14978 132.29166,-10.58333 2.53683,-26.22129 -48.80566,-83.88772 31.75,-68.79166 C 350.80139,81.97389 328.99715,37.93052 338.66666,0" />
    <path
       id="path896"
       style="fill:#18a72a;fill-opacity:0.517647;stroke:#ffffff;stroke-width:1.18356;stroke-linecap:round;stroke-linejoin:miter;stroke-miterlimit:4;stroke-dasharray:none;stroke-opacity:1"
       d="M -1.6666841e-6,190.49998 C 30.466148,147.83983 77.254178,134.73578 116.20653,134.74388 c 49.87032,0.0104 112.19052,23.83883 122.57223,-9.29268 C 245.99317,102.42764 209.97098,51.79371 280.5814,65.04878 342.24004,76.62341 322.76133,33.30485 338.66666,0 M -1.6666841e-6,190.49998 C 30.466148,147.83983 69.418058,130.08944 108.3704,130.09753 c 49.87032,0.0103 112.19052,23.83883 122.57224,-9.29268 C 238.15704,97.7813 202.13485,47.14737 272.74527,60.40244 334.40392,71.97707 322.76133,33.30485 338.66666,0" />
    <path
       id="path894"
       style="fill:#ffa72a;fill-opacity:0.517647;stroke:#ffffff;stroke-width:1.24758;stroke-linecap:round;stroke-linejoin:miter;stroke-miterlimit:4;stroke-dasharray:none;stroke-opacity:1"
       d="M -1.6666841e-6,216.95833 C 30.466148,169.55816 77.254178,154.99811 116.20653,155.00711 c 49.87032,0.0115 112.19052,26.48759 122.57223,-10.3252 7.21441,-25.58174 -28.80778,-81.84168 41.80264,-67.11382 61.65864,12.8607 42.17993,-35.27104 58.08526,-72.27642 M -1.6666841e-6,216.95833 C 30.466148,169.55816 69.418058,149.83551 108.3704,149.8445 c 49.87032,0.0115 112.19052,26.48759 122.57224,-10.3252 7.2144,-25.58174 -28.80779,-81.84167 41.80263,-67.11381 61.65865,12.8607 50.01606,-30.10844 65.92139,-67.11382" />
  </g>
  <g
     inkscape:groupmode="layer"
     id="layer2"
     inkscape:label="Camisetas"
     style="display:inline">
    <path
       id="rect838"
       style="fill:#ffffff;fill-opacity:1;stroke:#000000;stroke-width:1.73247;stroke-linejoin:round;stroke-opacity:1"
       d="M 48.773824,19.891174 12.841082,67.437182 33.090295,104.93582 48.773824,84.183116 V 152.18284 H 142.875 V 84.666666 L 158.41916,105.23481 178.66837,67.736166 142.875,20.37472 V 19.891174 H 119.28002 L 95.75473,48.239389 72.229433,19.891174 Z" />
    <path
       id="path862"
       style="fill:#5bb286;fill-opacity:1;stroke:#000000;stroke-width:0.947066;stroke-linejoin:round;stroke-opacity:1"
       d="m 214.70345,91.316805 -30.64066,33.258115 3.29541,18.954 13.37378,-14.51635 -14.77721,39.86974 53.18365,-14.09146 14.67213,-39.58621 4.31546,9.73184 19.59329,-25.018545 -9.93727,-22.40908 0.10508,-0.28351 -13.3353,3.5333 -19.45635,20.144055 -7.13548,-13.098325 z" />
    <path
       id="path864"
       style="fill:#eebe5b;fill-opacity:1;stroke:#000000;stroke-width:0.947066;stroke-linejoin:round;stroke-opacity:1"
       d="m 228.40755,105.85928 -30.64067,33.25812 3.29542,18.954 13.37378,-14.51635 -14.77722,39.86974 53.18365,-14.09146 14.67213,-39.58622 4.31546,9.73185 19.59329,-25.01855 -9.93727,-22.409075 0.10509,-0.28352 -13.33531,3.5333 -19.45634,20.144045 -7.13549,-13.09831 z" />
    <path
       id="path866"
       style="fill:#b05677;fill-opacity:1;stroke:#000000;stroke-width:0.947066;stroke-linejoin:round;stroke-opacity:1"
       d="m 245.11548,128.83965 -33.81363,29.59396 1.36831,19.21913 14.7587,-12.91704 -18.70662,37.96622 54.29795,-7.98125 18.5736,-37.69623 3.31098,10.16541 21.99995,-22.65403 -7.6243,-23.40743 0.13302,-0.26998 -13.6147,2.00122 -21.37305,17.82294 -5.77593,-13.83232 z"
       inkscape:transform-center-x="-48.062472"
       inkscape:transform-center-y="-40.258258" />
  </g>
  <g
     inkscape:groupmode="layer"
     id="layer3"
     inkscape:label="estampas"
     style="display:inline">
    <path
       id="path869"
       style="fill:#b05677;fill-opacity:1;stroke:#000000;stroke-width:1.065;stroke-linejoin:round;stroke-opacity:1"
       d="m 88.311977,87.333986 c -0.541182,-2.51626 1.875179,-3.88434 4.030888,-4.02365 1.175709,-0.11952 -1.18105,0.1498 0.238504,0.41706 2.956653,0.92898 5.666029,3.59097 5.919109,6.78973 -0.0204,2.66416 -2.959499,3.92595 -5.174224,4.43679 -1.938872,0.38372 -4.192472,0.81435 -5.74322,-0.67902 -4.278217,-1.62886 -7.523846,-6.40925 -6.3894,-11.02172 0.64466,-2.67052 3.340841,-4.07473 5.870332,-4.42112 2.205874,-0.62718 4.324462,0.13511 6.427277,0.77194 4.879135,1.72506 9.331537,5.66904 10.286257,10.93407 0.71687,3.50615 -1.22769,7.0822 -4.186532,8.91088 -2.99242,2.051644 -6.789531,2.940964 -10.388144,2.583774 -3.369893,-0.68995 -6.773133,-1.58923 -9.63212,-3.584884 -3.822259,-2.2628 -7.130724,-5.79989 -8.358205,-10.15942 -0.884384,-3.02326 -0.760456,-6.58292 1.360162,-9.08526 2.221699,-2.99192 6.175736,-3.80097 9.706682,-3.83297 6.277546,0.11349 12.485334,1.6602 18.278727,4.02601 4.70937,2.12245 9.33711,5.41368 11.39507,10.31571 1.41501,4.03845 1.93679,8.51205 0.91643,12.701594 -1.69014,3.66627 -5.61552,5.56825 -9.16875,7.01933 -3.811502,1.42639 -7.839082,2.13693 -11.849988,2.73492 1.349567,0.2597 2.69925,0.37555 4.040626,-0.0373 6.149782,-1.10577 12.734342,-2.61416 17.314692,-7.16846 2.19763,-1.94143 2.10714,-5.020834 2.14346,-7.699554 -0.21635,-4.2325 -1.0396,-8.73985 -4.09161,-11.91242 -5.03194,-5.55931 -12.466802,-7.85143 -19.557598,-9.43399 -4.763558,-0.83578 -9.691033,-1.17601 -14.494585,-0.48502 -2.814392,0.39791 -5.605152,1.78556 -7.062466,4.30617 -2.406594,3.52116 -1.45847,8.27752 0.47491,11.79149 2.284964,3.99453 6.105564,6.89564 10.210986,8.831764 6.071374,2.48888 13.314932,3.06354 19.345583,0.15478 3.21376,-1.683994 5.98289,-4.919764 5.80404,-8.734484 -0.26661,-5.355 -4.39835,-9.77728 -9.115512,-11.88215 -3.745967,-1.85911 -8.141934,-1.96343 -12.18386,-1.25211 -2.757459,0.38366 -5.463738,2.35172 -5.767383,5.28097 -0.54378,4.09314 1.986248,8.06024 5.46518,10.06535 2.907744,1.78564 6.532737,1.63712 9.810724,1.4647 2.492929,-0.43018 5.566119,-1.40163 6.400561,-4.08314 0.46664,-3.33014 -2.250522,-6.12692 -4.949642,-7.64591 -2.670626,-1.29068 -6.10438,-1.11096 -8.614029,0.48918 -0.970793,0.76199 -1.851509,3.73627 0.188328,3.11634 0.366241,-1e-5 0.732532,3e-5 1.09874,-2e-5 z" />
    <path
       style="fill:#ff7f2a;fill-opacity:1;stroke:#000000;stroke-width:1.065;stroke-linejoin:round;stroke-opacity:1"
       id="path872"
       d="m 96.524278,69.094144 c -0.701754,-1.636024 -2.132531,-2.78671 -3.013347,-4.316973 -0.206092,-0.358048 -0.356201,-0.745525 -0.534302,-1.118285 -0.118433,-0.823392 -0.355161,-1.333223 0.168237,-2.097448 0.642306,-0.937844 2.410466,-1.738056 3.482502,-1.958268 0.39281,-0.08069 0.8005,-0.04929 1.20075,-0.07393 -0.43946,0.081 -0.9701,-0.03696 -1.31838,0.243014 -0.16753,0.134684 0.35873,0.253595 0.47905,0.431726 0.10071,0.149101 0.14799,0.335844 0.16066,0.515326 0.0344,0.48768 -0.46488,1.517957 -0.62926,1.951932 -0.31022,1.017146 -0.50325,2.063419 -0.706268,3.105423 0,0 2.243328,0.0419 2.243328,0.0419 v 0 c 0.18892,-1.031959 0.37198,-2.068536 0.71813,-3.062851 0.31758,-0.780137 0.99119,-1.87937 0.48361,-2.733434 -0.12715,-0.21395 -0.2745,-0.483484 -0.51724,-0.538464 -1.01516,-0.229936 -2.07319,-0.188709 -3.109788,-0.283062 -0.396253,0.04408 -0.801571,0.03713 -1.188757,0.132247 -1.150657,0.282667 -2.875505,1.120058 -3.528689,2.162027 -0.526746,0.840269 -0.282075,1.374865 -0.149897,2.261989 0.181014,0.383534 0.333766,0.78173 0.543044,1.150604 0.846039,1.491234 2.208551,2.634281 2.889025,4.219559 0,0 2.327592,-0.03303 2.327592,-0.03303 z" />
    <path
       style="fill:#ff7f2a;fill-opacity:1;stroke:#000000;stroke-width:1.065;stroke-linejoin:round;stroke-opacity:1"
       id="path874"
       d="m 91.734352,121.6056 c -0.636083,0.28444 -1.769526,0.75878 -2.28427,1.15535 -1.205854,0.92901 -2.023909,2.30751 -1.470591,3.84799 0.125862,0.3504 0.41924,0.61541 0.628861,0.92313 0.880772,0.97198 0.153633,0.39497 2.591764,0.11691 0.680532,-0.0776 -1.373495,0.10067 -2.036842,0.27132 -0.192445,0.0495 0.390628,0.074 0.587417,0.10155 0.229867,0.0322 0.459999,0.0852 0.691989,0.0777 0.962474,-0.0311 1.921642,-0.12888 2.882463,-0.19331 1.050383,-0.60496 1.198459,-0.99218 0.933495,-2.14512 0,0 -2.308095,0.0561 -2.308095,0.0561 v 0 c 0.265845,0.99269 0.05798,1.34768 -0.889014,1.79341 0.544934,0.0516 1.090216,0.0996 1.6348,0.15476 0.225383,0.0228 -0.453009,-0.0249 -0.677143,-0.0578 -1.030642,-0.15123 -2.073592,-0.86817 -3.152971,0.0805 -0.503647,0.44265 3.73034,0.38087 1.971908,-0.39745 -0.215929,-0.27147 -0.513889,-0.49443 -0.647782,-0.81443 -0.6057,-1.44757 0.288647,-2.75263 1.434132,-3.57928 0.507939,-0.36656 1.76811,-0.87631 2.393807,-1.14437 0,0 -2.283928,-0.2469 -2.283928,-0.2469 z" />
    <path
       style="fill:#ff7f2a;fill-opacity:1;stroke:#000000;stroke-width:1.065;stroke-linejoin:round;stroke-opacity:1"
       id="path876"
       d="m 122.38651,90.949286 c 0.46095,-0.0508 1.76195,-0.21251 2.13065,-0.15799 0.1905,0.0282 -0.72529,0.0743 -0.55429,0.1629 0.49652,0.25721 1.10092,0.215 1.63048,0.39459 1.00101,0.33949 1.00871,0.44828 1.66822,1.05559 -0.0256,0.12835 0.0135,0.2902 -0.0767,0.38505 -0.26693,0.28077 -1.51636,0.26418 -1.12912,0.27537 2.91303,0.0842 1.4507,-0.0296 0.6071,-0.37618 -0.39536,-0.16864 -0.71077,-0.44266 -1.01908,-0.73059 -0.42906,-0.24371 -0.19837,-0.12552 -0.69539,-0.34802 0,0 -2.29311,0.2673 -2.29311,0.2673 v 0 c 0.47316,0.19971 0.2545,0.10145 0.65765,0.29103 0.36509,0.23506 0.62409,0.64729 1.06499,0.78614 1.38688,0.64276 2.03468,0.49683 3.93494,0.42507 0.35247,-0.0133 0.98097,-0.20086 1.17207,-0.56455 0.0926,-0.17631 0.0219,-0.39771 0.0329,-0.59657 -0.20842,-0.1951 -0.38593,-0.42967 -0.62526,-0.58531 -2.40907,-1.5666 -6.02166,-1.25885 -8.7781,-1.01288 0,0 2.27206,0.32905 2.27206,0.32905 z" />
    <path
       style="fill:#ff2a2a;fill-opacity:1;stroke:#000000;stroke-width:1.065;stroke-linejoin:round;stroke-opacity:1"
       id="path878"
       d="m 66.11333,89.471536 c -1.537772,-0.23874 -3.099536,-0.9798 -3.943054,-2.35716 -0.150014,-0.24495 -0.215778,-0.53241 -0.323667,-0.79861 0.06489,-0.61561 -0.07142,-0.90264 0.589549,-1.20461 0.224454,-0.10254 0.979237,-0.11805 0.732804,-0.10514 -2.237235,0.11716 -1.685039,-0.0214 -0.798074,0.42952 0.195681,0.0995 0.373261,0.23111 0.559893,0.34667 0.411475,0.31393 1.190331,1.02092 0.770771,1.63255 -0.05505,0.0803 -0.150072,0.12394 -0.225108,0.18591 -0.514074,0.27466 -1.080867,0.42614 -1.642919,0.5676 0,0 2.298533,0.30322 2.298533,0.30322 v 0 c 0.578567,-0.16128 1.174279,-0.31961 1.65604,-0.69544 0.07768,-0.0996 0.177165,-0.18553 0.233053,-0.29882 0.370827,-0.75164 -0.284461,-1.49593 -0.82174,-1.92303 -1.594151,-1.05175 -1.748419,-0.92164 -4.280114,-0.85233 -0.533133,0.0146 -1.059974,0.34441 -1.26038,0.85215 -0.103992,0.26347 -0.04365,0.56482 -0.06547,0.84723 0.113276,0.28882 0.182314,0.59919 0.339823,0.86647 0.822193,1.39522 2.359252,2.22025 3.893314,2.54478 0,0 2.286747,-0.34096 2.286747,-0.34096 z" />
    <path
       style="fill:#ff2a2a;fill-opacity:1;stroke:#000000;stroke-width:1.065;stroke-linejoin:round;stroke-opacity:1"
       id="path880"
       d="m 66.510146,69.373968 c 2.707717,2.726364 4.42876,-0.83466 5.445961,-2.545443 0.415282,-0.698444 0.806194,-1.411092 1.209292,-2.11664 0,0 -2.077966,-0.108995 -2.077966,-0.108995 v 0 c -0.703395,1.20314 -1.607048,2.868123 -2.508859,3.960275 -0.281874,0.341368 -1.21335,0.507505 -0.987401,0.888204 0.27209,0.458441 1.073676,0.250605 1.593739,0.133403 0.17843,-0.04021 -0.242732,-0.273677 -0.364096,-0.410517 0,0 -2.31067,0.199713 -2.31067,0.199713 z" />
    <path
       style="fill:#ff2a2a;fill-opacity:1;stroke:#000000;stroke-width:1.065;stroke-linejoin:round;stroke-opacity:1"
       id="path882"
       d="m 120.30728,60.791067 c -1.26645,2.081212 -2.77083,4.010782 -4.17227,6.002779 -0.45295,0.643827 -1.0272,1.217996 -1.35707,1.932742 -0.23847,0.516694 -0.20653,1.119243 -0.30979,1.678863 0.34926,0.437359 0.6052,0.96947 1.04779,1.312077 0.99435,0.769723 2.61305,1.150337 3.77174,1.506288 0,0 2.10883,-0.271375 2.10883,-0.271375 v 0 c -1.17028,-0.341455 -2.67709,-0.674857 -3.71141,-1.389356 -0.42115,-0.290925 -0.6987,-0.748218 -1.04805,-1.122325 0.0755,-0.528778 0.007,-1.099225 0.22646,-1.586336 0.32271,-0.717299 0.89936,-1.290693 1.35604,-1.931093 1.44621,-2.02804 2.99468,-3.981339 4.40249,-6.035397 0,0 -2.31476,-0.09687 -2.31476,-0.09687 z" />
    <path
       style="fill:#ff2a2a;fill-opacity:1;stroke:#000000;stroke-width:1.065;stroke-linejoin:round;stroke-opacity:1"
       id="path884"
       d="m 116.32291,125.63546 c -0.49393,-2.23652 -0.8787,-4.4981 -1.19071,-6.76693 -0.0949,-0.68993 -0.40202,-1.39418 -0.25128,-2.0741 0.28017,-1.26376 1.6672,-1.57777 2.60132,-1.99307 2.15383,-0.0998 1.98364,-0.78295 2.10791,0.13295 0,0 2.09217,-0.30785 2.09217,-0.30785 v 0 c -4.92637,-0.27959 -2.81415,-0.35308 -6.34015,-0.0674 -1.07003,0.53981 -2.30955,0.82646 -2.58071,2.26271 -0.12974,0.68721 0.18542,1.38638 0.28664,2.07837 0.33082,2.26159 0.69849,4.51799 1.0487,6.77661 0,0 2.22611,-0.0413 2.22611,-0.0413 z" />
    <path
       style="fill:#ff2a2a;fill-opacity:1;stroke:#000000;stroke-width:1.065;stroke-linejoin:round;stroke-opacity:1"
       id="path886"
       d="m 69.837433,107.18952 c -0.321932,0.0498 -0.931323,-0.17463 -0.965798,0.1493 -0.04538,0.42638 0.689379,0.56946 0.846851,0.96829 0.199954,0.50643 0.19339,1.07963 0.17661,1.62384 -0.05974,1.93763 -0.785413,4.04198 -1.354143,5.88162 0,0 2.141109,0.0627 2.141109,0.0627 v 0 c 0.392523,-1.33751 0.765802,-2.51292 1.045477,-3.88749 0.210683,-1.03548 0.567719,-2.73349 0.189042,-3.83031 -0.154702,-0.44809 -0.40109,-0.99905 -0.854736,-1.13661 -1.109739,-0.33652 -2.316306,-0.11745 -3.474458,-0.17618 0,0 2.250046,0.34486 2.250046,0.34486 z" />
  </g>
</svg>
