<svg id="svg8" width="1280" height="820" version="1.1" viewBox="0 0 338.67 216.96" xmlns="http://www.w3.org/2000/svg"><g id="layer1"><rect id="rect835" width="338.67" height="216.96" fill="#f0755b"/></g><g id="layer4" stroke="#fff" stroke-linecap="round"><path id="path891" d="m11.642 216.96c23.458-48.585 71.724-63.509 114.46-63.5 54.71 0.0118 128.64 27.15 132.29-10.583 2.5368-26.221-48.806-83.888 31.75-68.792 70.343 13.182 38.857-36.153 48.527-74.083m-327.02 216.96c23.458-48.585 62.042-68.801 104.78-68.792 54.71 0.0118 128.64 27.15 132.29-10.583 2.5368-26.221-48.806-83.888 31.75-68.792 70.343 13.182 48.539-30.861 58.208-68.792" fill="#ff2a2a" stroke-width="1.3229"/><path id="path896" d="m-1.6667e-6 190.5c30.466-42.66 77.254-55.764 116.21-55.756 49.87 0.0104 112.19 23.839 122.57-9.2927 7.2144-23.024-28.808-73.657 41.803-60.402 61.659 11.575 42.18-31.744 58.085-65.049m-338.67 190.5c30.466-42.66 69.418-60.411 108.37-60.402 49.87 0.0103 112.19 23.839 122.57-9.2927 7.2144-23.024-28.808-73.657 41.803-60.402 61.659 11.575 50.016-27.098 65.921-60.402" fill="#18a72a" fill-opacity=".51765" stroke-width="1.1836"/><path id="path894" d="m-1.6667e-6 216.96c30.466-47.4 77.254-61.96 116.21-61.951 49.87 0.0115 112.19 26.488 122.57-10.325 7.2144-25.582-28.808-81.842 41.803-67.114 61.659 12.861 42.18-35.271 58.085-72.276m-338.67 211.67c30.466-47.4 69.418-67.123 108.37-67.114 49.87 0.0115 112.19 26.488 122.57-10.325 7.2144-25.582-28.808-81.842 41.803-67.114 61.659 12.861 50.016-30.108 65.921-67.114" fill="#ffa72a" fill-opacity=".51765" stroke-width="1.2476"/></g><g id="layer2" stroke="#000" stroke-linejoin="round"><path id="rect838" d="m48.774 19.891-35.933 47.546 20.249 37.499 15.684-20.753v68h94.101v-67.516l15.544 20.568 20.249-37.499-35.793-47.361v-0.48355h-23.595l-23.525 28.348-23.525-28.348z" fill="#fff" stroke-width="1.7325"/><g stroke-width=".94707"><path id="path862" d="m214.7 91.317-30.641 33.258 3.2954 18.954 13.374-14.516-14.777 39.87 53.184-14.091 14.672-39.586 4.3155 9.7318 19.593-25.019-9.9373-22.409 0.10508-0.28351-13.335 3.5333-19.456 20.144-7.1355-13.098z" fill="#5bb286"/><path id="path864" d="m228.41 105.86-30.641 33.258 3.2954 18.954 13.374-14.516-14.777 39.87 53.184-14.091 14.672-39.586 4.3155 9.7318 19.593-25.019-9.9373-22.409 0.10509-0.28352-13.335 3.5333-19.456 20.144-7.1355-13.098z" fill="#eebe5b"/><path id="path866" d="m245.12 128.84-33.814 29.594 1.3683 19.219 14.759-12.917-18.707 37.966 54.298-7.9812 18.574-37.696 3.311 10.165 22-22.654-7.6243-23.407 0.13302-0.26998-13.615 2.0012-21.373 17.823-5.7759-13.832z" fill="#b05677"/></g></g><g id="layer3" stroke="#000" stroke-linejoin="round" stroke-width="1.065"><path id="path869" d="m88.312 87.334c-0.54118-2.5163 1.8752-3.8843 4.0309-4.0236 1.1757-0.11952-1.181 0.1498 0.2385 0.41706 2.9567 0.92898 5.666 3.591 5.9191 6.7897-0.0204 2.6642-2.9595 3.926-5.1742 4.4368-1.9389 0.38372-4.1925 0.81435-5.7432-0.67902-4.2782-1.6289-7.5238-6.4092-6.3894-11.022 0.64466-2.6705 3.3408-4.0747 5.8703-4.4211 2.2059-0.62718 4.3245 0.13511 6.4273 0.77194 4.8791 1.7251 9.3315 5.669 10.286 10.934 0.71687 3.5062-1.2277 7.0822-4.1865 8.9109-2.9924 2.0516-6.7895 2.941-10.388 2.5838-3.3699-0.68995-6.7731-1.5892-9.6321-3.5849-3.8223-2.2628-7.1307-5.7999-8.3582-10.159-0.88438-3.0233-0.76046-6.5829 1.3602-9.0853 2.2217-2.9919 6.1757-3.801 9.7067-3.833 6.2775 0.11349 12.485 1.6602 18.279 4.026 4.7094 2.1224 9.3371 5.4137 11.395 10.316 1.415 4.0384 1.9368 8.512 0.91643 12.702-1.6901 3.6663-5.6155 5.5682-9.1688 7.0193-3.8115 1.4264-7.8391 2.1369-11.85 2.7349 1.3496 0.2597 2.6992 0.37555 4.0406-0.0373 6.1498-1.1058 12.734-2.6142 17.315-7.1685 2.1976-1.9414 2.1071-5.0208 2.1435-7.6996-0.21635-4.2325-1.0396-8.7398-4.0916-11.912-5.0319-5.5593-12.467-7.8514-19.558-9.434-4.7636-0.83578-9.691-1.176-14.495-0.48502-2.8144 0.39791-5.6052 1.7856-7.0625 4.3062-2.4066 3.5212-1.4585 8.2775 0.47491 11.791 2.285 3.9945 6.1056 6.8956 10.211 8.8318 6.0714 2.4889 13.315 3.0635 19.346 0.15478 3.2138-1.684 5.9829-4.9198 5.804-8.7345-0.26661-5.355-4.3984-9.7773-9.1155-11.882-3.746-1.8591-8.1419-1.9634-12.184-1.2521-2.7575 0.38366-5.4637 2.3517-5.7674 5.281-0.54378 4.0931 1.9862 8.0602 5.4652 10.065 2.9077 1.7856 6.5327 1.6371 9.8107 1.4647 2.4929-0.43018 5.5661-1.4016 6.4006-4.0831 0.46664-3.3301-2.2505-6.1269-4.9496-7.6459-2.6706-1.2907-6.1044-1.111-8.614 0.48918-0.97079 0.76199-1.8515 3.7363 0.18833 3.1163 0.36624-1e-5 0.73253 3e-5 1.0987-2e-5z" fill="#b05677"/><g fill="#ff7f2a"><path id="path872" d="m96.524 69.094c-0.70175-1.636-2.1325-2.7867-3.0133-4.317-0.20609-0.35805-0.3562-0.74552-0.5343-1.1183-0.11843-0.82339-0.35516-1.3332 0.16824-2.0974 0.64231-0.93784 2.4105-1.7381 3.4825-1.9583 0.39281-0.08069 0.8005-0.04929 1.2008-0.07393-0.43946 0.081-0.9701-0.03696-1.3184 0.24301-0.16753 0.13468 0.35873 0.2536 0.47905 0.43173 0.10071 0.1491 0.14799 0.33584 0.16066 0.51533 0.0344 0.48768-0.46488 1.518-0.62926 1.9519-0.31022 1.0171-0.50325 2.0634-0.70627 3.1054 0 0 2.2433 0.0419 2.2433 0.0419 0.18892-1.032 0.37198-2.0685 0.71813-3.0629 0.31758-0.78014 0.99119-1.8794 0.48361-2.7334-0.12715-0.21395-0.2745-0.48348-0.51724-0.53846-1.0152-0.22994-2.0732-0.18871-3.1098-0.28306-0.39625 0.04408-0.80157 0.03713-1.1888 0.13225-1.1507 0.28267-2.8755 1.1201-3.5287 2.162-0.52675 0.84027-0.28208 1.3749-0.1499 2.262 0.18101 0.38353 0.33377 0.78173 0.54304 1.1506 0.84604 1.4912 2.2086 2.6343 2.889 4.2196 0 0 2.3276-0.03303 2.3276-0.03303z"/><path id="path874" d="m91.734 121.61c-0.63608 0.28444-1.7695 0.75878-2.2843 1.1554-1.2059 0.92901-2.0239 2.3075-1.4706 3.848 0.12586 0.3504 0.41924 0.61541 0.62886 0.92313 0.88077 0.97198 0.15363 0.39497 2.5918 0.11691 0.68053-0.0776-1.3735 0.10067-2.0368 0.27132-0.19244 0.0495 0.39063 0.074 0.58742 0.10155 0.22987 0.0322 0.46 0.0852 0.69199 0.0777 0.96247-0.0311 1.9216-0.12888 2.8825-0.19331 1.0504-0.60496 1.1985-0.99218 0.9335-2.1451 0 0-2.3081 0.0561-2.3081 0.0561 0.26584 0.99269 0.05798 1.3477-0.88901 1.7934 0.54493 0.0516 1.0902 0.0996 1.6348 0.15476 0.22538 0.0228-0.45301-0.0249-0.67714-0.0578-1.0306-0.15123-2.0736-0.86817-3.153 0.0805-0.50365 0.44265 3.7303 0.38087 1.9719-0.39745-0.21593-0.27147-0.51389-0.49443-0.64778-0.81443-0.6057-1.4476 0.28865-2.7526 1.4341-3.5793 0.50794-0.36656 1.7681-0.87631 2.3938-1.1444 0 0-2.2839-0.2469-2.2839-0.2469z"/><path id="path876" d="m122.39 90.949c0.46095-0.0508 1.762-0.21251 2.1306-0.15799 0.1905 0.0282-0.72529 0.0743-0.55429 0.1629 0.49652 0.25721 1.1009 0.215 1.6305 0.39459 1.001 0.33949 1.0087 0.44828 1.6682 1.0556-0.0256 0.12835 0.0135 0.2902-0.0767 0.38505-0.26693 0.28077-1.5164 0.26418-1.1291 0.27537 2.913 0.0842 1.4507-0.0296 0.6071-0.37618-0.39536-0.16864-0.71077-0.44266-1.0191-0.73059-0.42906-0.24371-0.19837-0.12552-0.69539-0.34802 0 0-2.2931 0.2673-2.2931 0.2673 0.47316 0.19971 0.2545 0.10145 0.65765 0.29103 0.36509 0.23506 0.62409 0.64729 1.065 0.78614 1.3869 0.64276 2.0347 0.49683 3.9349 0.42507 0.35247-0.0133 0.98097-0.20086 1.1721-0.56455 0.0926-0.17631 0.0219-0.39771 0.0329-0.59657-0.20842-0.1951-0.38593-0.42967-0.62526-0.58531-2.4091-1.5666-6.0217-1.2588-8.7781-1.0129 0 0 2.2721 0.32905 2.2721 0.32905z"/></g><g fill="#ff2a2a"><path id="path878" d="m66.113 89.472c-1.5378-0.23874-3.0995-0.9798-3.9431-2.3572-0.15001-0.24495-0.21578-0.53241-0.32367-0.79861 0.06489-0.61561-0.07142-0.90264 0.58955-1.2046 0.22445-0.10254 0.97924-0.11805 0.7328-0.10514-2.2372 0.11716-1.685-0.0214-0.79807 0.42952 0.19568 0.0995 0.37326 0.23111 0.55989 0.34667 0.41148 0.31393 1.1903 1.0209 0.77077 1.6326-0.05505 0.0803-0.15007 0.12394-0.22511 0.18591-0.51407 0.27466-1.0809 0.42614-1.6429 0.5676 0 0 2.2985 0.30322 2.2985 0.30322 0.57857-0.16128 1.1743-0.31961 1.656-0.69544 0.07768-0.0996 0.17716-0.18553 0.23305-0.29882 0.37083-0.75164-0.28446-1.4959-0.82174-1.923-1.5942-1.0518-1.7484-0.92164-4.2801-0.85233-0.53313 0.0146-1.06 0.34441-1.2604 0.85215-0.10399 0.26347-0.04365 0.56482-0.06547 0.84723 0.11328 0.28882 0.18231 0.59919 0.33982 0.86647 0.82219 1.3952 2.3593 2.2202 3.8933 2.5448 0 0 2.2867-0.34096 2.2867-0.34096z"/><path id="path880" d="m66.51 69.374c2.7077 2.7264 4.4288-0.83466 5.446-2.5454 0.41528-0.69844 0.80619-1.4111 1.2093-2.1166l-2.078-0.109c-0.7034 1.2031-1.607 2.8681-2.5089 3.9603-0.28187 0.34137-1.2134 0.5075-0.9874 0.8882 0.27209 0.45844 1.0737 0.2506 1.5937 0.1334 0.17843-0.04021-0.24273-0.27368-0.3641-0.41052l-2.3107 0.19971z"/><path id="path882" d="m120.31 60.791c-1.2664 2.0812-2.7708 4.0108-4.1723 6.0028-0.45295 0.64383-1.0272 1.218-1.3571 1.9327-0.23847 0.51669-0.20653 1.1192-0.30979 1.6789 0.34926 0.43736 0.6052 0.96947 1.0478 1.3121 0.99435 0.76972 2.613 1.1503 3.7717 1.5063 0 0 2.1088-0.27138 2.1088-0.27138-1.1703-0.34146-2.6771-0.67486-3.7114-1.3894-0.42115-0.29092-0.6987-0.74822-1.048-1.1223 0.0755-0.52878 7e-3 -1.0992 0.22646-1.5863 0.32271-0.7173 0.89936-1.2907 1.356-1.9311 1.4462-2.028 2.9947-3.9813 4.4025-6.0354 0 0-2.3148-0.09687-2.3148-0.09687z"/><path id="path884" d="m116.32 125.64c-0.49393-2.2365-0.8787-4.4981-1.1907-6.7669-0.0949-0.68993-0.40202-1.3942-0.25128-2.0741 0.28017-1.2638 1.6672-1.5778 2.6013-1.9931 2.1538-0.0998 1.9836-0.78295 2.1079 0.13295l2.0922-0.30785c-4.9264-0.27959-2.8142-0.35308-6.3402-0.0674-1.07 0.53981-2.3096 0.82646-2.5807 2.2627-0.12974 0.68721 0.18542 1.3864 0.28664 2.0784 0.33082 2.2616 0.69849 4.518 1.0487 6.7766 0 0 2.2261-0.0413 2.2261-0.0413z"/><path id="path886" d="m69.837 107.19c-0.32193 0.0498-0.93132-0.17463-0.9658 0.1493-0.04538 0.42638 0.68938 0.56946 0.84685 0.96829 0.19995 0.50643 0.19339 1.0796 0.17661 1.6238-0.05974 1.9376-0.78541 4.042-1.3541 5.8816l2.1411 0.0627c0.39252-1.3375 0.7658-2.5129 1.0455-3.8875 0.21068-1.0355 0.56772-2.7335 0.18904-3.8303-0.1547-0.44809-0.40109-0.99905-0.85474-1.1366-1.1097-0.33652-2.3163-0.11745-3.4745-0.17618l2.25 0.34486z"/></g></g></svg>
