<?xml version="1.0" encoding="UTF-8"?>
<svg width="380" height="380" version="1.1" viewBox="0 0 100.54 100.54" xmlns="http://www.w3.org/2000/svg" xmlns:cc="http://creativecommons.org/ns#" xmlns:dc="http://purl.org/dc/elements/1.1/" xmlns:rdf="http://www.w3.org/1999/02/22-rdf-syntax-ns#">
 <metadata>
  <rdf:RDF>
   <cc:Work rdf:about="">
    <dc:format>image/svg+xml</dc:format>
    <dc:type rdf:resource="http://purl.org/dc/dcmitype/StillImage"/>
    <dc:title/>
   </cc:Work>
  </rdf:RDF>
 </metadata>
 <path transform="scale(.26458)" d="m185.91 102.62a87.006 86.262 0 0 0-87.006 86.262 87.006 86.262 0 0 0 22.057 57.396 145.01 148.73 0 0 0-80.061 132.97 145.01 148.73 0 0 0 0.007812 1.4883h290.01a145.01 148.73 0 0 0 0.00586-1.4883 145.01 148.73 0 0 0-80.061-132.97 87.006 86.262 0 0 0 22.057-57.396 87.006 86.262 0 0 0-87.006-86.262z" fill="#007900" stroke="#000" stroke-linejoin="round" stroke-width="4.0252"/>
</svg>
